<svg xmlns="http://www.w3.org/2000/svg" style="display: none;"><symbol id="graphic" viewBox="0 0 512 512"><title>graphic</title><g> <g> <path d="M488,8H24C10.745,8,0,18.745,0,32v352c0,4.418,3.582,8,8,8h182.24l-12.8,64H160c-4.418,0-8,3.582-8,8v24h-16v16h240v-16 h-16v-24c0-4.418-3.582-8-8-8h-17.453l-12.8-64H504c4.418,0,8-3.582,8-8V32C512,18.745,501.255,8,488,8z M328,472h16v16H168v-16 h16H328z M193.76,456l12.788-64h98.892l12.8,64H193.76z M496,376H16v-72h112h48h48h48h48h64h112V376z M384,80h-64 c-4.418,0-8,3.582-8,8v72h16V96h48v32h-32v16h32v40h-32v16h32v40h-32v16h32v32h-48v-64h-16v64h-32v-40 c0-32.648,39.648-39.824,41.312-40.112c0.986-0.165,1.932-0.513,2.79-1.027c3.791-2.27,5.024-7.183,2.754-10.973l-72-120 c-0.58-0.846-1.311-1.577-2.157-2.157c-3.786-2.595-8.96-1.63-11.555,2.157l-72,120c-0.511,0.852-0.859,1.792-1.025,2.772 c-0.741,4.356,2.189,8.487,6.545,9.228C176.352,208.176,216,215.352,216,248v40h-32v-64h-16v64h-8V144h8v16h16v-24 c0.002-1.084-0.218-2.157-0.648-3.152l-24-56c-0.809-1.886-2.312-3.389-4.198-4.198c-4.06-1.742-8.764,0.138-10.506,4.198l-24,56 c-0.43,0.995-0.65,2.068-0.648,3.152v152H56V64h400v224h-64V88C392,83.582,388.418,80,384,80z M232,264v-8h32v8H232z M264,280v8 h-32v-8H264z M231.416,240c-3.832-25.44-25.616-39.2-43.04-45.08L240,108.885V176h16v-67.115l51.624,86.035 c-17.44,5.84-39.208,19.64-43.04,45.08H231.416z M140.115,128L152,100.272L163.885,128H140.115z M144,144v144h-8V144H144z M496,288h-24V56c0-4.418-3.582-8-8-8H48c-4.418,0-8,3.582-8,8v232H16V32c0-4.418,3.582-8,8-8h464c4.418,0,8,3.582,8,8V288z"/> </g> </g><g> <g> <path d="M256,312c-13.255,0-24,10.745-24,24s10.745,24,24,24s24-10.745,24-24S269.255,312,256,312z M256,344c-4.418,0-8-3.582-8-8 c0-4.418,3.582-8,8-8c4.418,0,8,3.582,8,8C264,340.418,260.418,344,256,344z"/> </g> </g></symbol><symbol id="flyer" viewBox="0 0 512 512"><title>flyer</title><path d="M478.968,445.935v-22.52c16.21-27.821,24.775-59.483,24.775-91.698v-1.396c0-33.61-16.054-65.718-42.942-85.884 c-9.481-7.11-20.141-12.552-31.381-16.194V0H120.452L0,120.452v292.451h350.678l12.677,19.018v14.014h-33.032V512H512v-66.065 H478.968z M450.89,257.651c22.751,17.062,36.336,44.23,36.336,72.671v1.396c0,30.001-8.158,59.466-23.593,85.19l-1.181,1.966 v27.061h-82.581v-19.018l-9.348-14.013h58.897v-76.908l9.513,15.22l14.007-8.754l-26.74-42.776 c-10.628-17.012-28.953-27.169-49.02-27.169h-13.824c-9.109,0-16.516-7.407-16.516-16.516c0-9.108,7.407-16.516,16.516-16.516 h33.032C415.909,239.483,435.267,245.933,450.89,257.651z M140.388,49.548h239.484v99.097H49.549v-16.516h90.838V49.548z M123.871,19.935v95.678H28.193L123.871,19.935z M16.517,396.387V132.129h16.515v33.032h363.355V33.032h-256V16.516h272.517 v207.772c-5.458-0.858-10.975-1.321-16.516-1.321h-33.032c-18.217,0-33.032,14.815-33.032,33.032s14.815,33.032,33.032,33.032 h13.824c14.328,0,27.416,7.251,35.014,19.407l0.71,1.123v86.825H16.517z M495.484,495.484H346.839v-33.032h16.516h115.613h16.516 V495.484z"/><path d="M132.129,181.677c-54.644,0-99.097,44.453-99.097,99.097s44.453,99.097,99.097,99.097s99.097-44.453,99.097-99.097 S186.773,181.677,132.129,181.677z M132.129,363.355c-45.535,0-82.581-37.045-82.581-82.581 c0-45.535,37.045-82.581,82.581-82.581s82.581,37.045,82.581,82.581C214.71,326.31,177.664,363.355,132.129,363.355z"/><rect x="280.77" y="198.194" width="115.609" height="16.512"/><rect x="247.738" y="198.194" width="16.512" height="16.512"/><rect x="247.738" y="231.226" width="66.065" height="16.512"/><rect x="247.738" y="264.258" width="66.065" height="16.512"/><rect x="247.738" y="297.29" width="66.065" height="16.512"/><rect x="247.738" y="330.323" width="66.065" height="16.512"/><rect x="379.867" y="363.355" width="16.512" height="16.512"/><rect x="247.738" y="363.355" width="115.609" height="16.512"/></symbol><symbol id="wacom" viewBox="0 0 512 512"><title>wacom</title><g> <g> <path d="M298.07,118.93c-1.86-1.86-4.44-2.93-7.07-2.93s-5.21,1.069-7.07,2.93c-1.86,1.86-2.93,4.44-2.93,7.07 s1.07,5.21,2.93,7.069c1.86,1.861,4.44,2.931,7.07,2.931s5.21-1.07,7.07-2.931c1.86-1.859,2.93-4.439,2.93-7.069 S299.93,120.79,298.07,118.93z"/> </g> </g><g> <g> <path d="M482,116h-8c-5.523,0-10,4.478-10,10c0,5.522,4.477,10,10,10h8c5.514,0,10,4.486,10,10v336c0,5.514-4.486,10-10,10H30 c-5.514,0-10-4.486-10-10V146c0-5.514,4.486-10,10-10h218.5c5.523,0,10-4.478,10-10c0-5.522-4.477-10-10-10H30 c-16.542,0-30,13.458-30,30v336c0,16.542,13.458,30,30,30h452c16.542,0,30-13.458,30-30V146C512,129.458,498.542,116,482,116z"/> </g> </g><g> <g> <path d="M438,280c-18.748,0-34,15.252-34,34s15.252,34,34,34s34-15.252,34-34S456.748,280,438,280z M438,328 c-7.72,0-14-6.28-14-14c0-7.72,6.28-14,14-14c7.72,0,14,6.28,14,14C452,321.72,445.72,328,438,328z"/> </g> </g><g> <g> <path d="M462,164h-48c-5.523,0-10,4.478-10,10v76c0,5.522,4.477,10,10,10h48c5.523,0,10-4.478,10-10v-76 C472,168.478,467.523,164,462,164z M452,240h-28v-56h28V240z"/> </g> </g><g> <g> <path d="M462,368h-48c-5.523,0-10,4.478-10,10v76c0,5.522,4.477,10,10,10h48c5.523,0,10-4.478,10-10v-76 C472,372.478,467.523,368,462,368z M452,444h-28v-56h28V444z"/> </g> </g><g> <g> <path d="M508.384,35.038l-32.11-32.11C474.398,1.054,471.854,0,469.202,0c-2.652,0-5.196,1.054-7.071,2.929l-39.256,39.256 l-0.001,0.001l-0.001,0.001l-130.219,130.22c-0.001,0.001-0.003,0.002-0.004,0.004c-0.001,0.002-0.002,0.003-0.004,0.004 l-29.915,29.915c-10.286,10.285-12.269,25.772-5.962,38.071l-11.334,11.334c-21.19-7.249-43.666-11.034-66.732-11.034 C132.115,240.701,91.15,265.207,68,302V192h176c5.523,0,10-4.478,10-10c0-5.522-4.477-10-10-10H58c-5.523,0-10,4.478-10,10v264 c0,5.522,4.477,10,10,10h316c5.523,0,10-4.478,10-10V223.333c0-5.522-4.477-10-10-10s-10,4.478-10,10v133.99 c-9.921-20.714-23.386-39.812-40.097-56.524c-17.19-17.19-36.904-30.945-58.306-40.941l5.307-5.307 c4.57,2.355,9.664,3.61,14.953,3.61c8.736,0,16.949-3.402,23.126-9.579l29.914-29.914c0.002-0.002,0.003-0.003,0.005-0.005 s0.003-0.003,0.005-0.005L469.122,88.443c0.002-0.002,0.003-0.003,0.005-0.005s0.003-0.003,0.005-0.005l39.252-39.252 C512.289,45.276,512.289,38.944,508.384,35.038z M68,436v-9.969c1.514,1.785,3.091,3.53,4.765,5.204s3.418,3.25,5.204,4.765H68z M363.728,436H175.493c8.234-9.766,13.209-22.365,13.209-36.109c0-21.222-17.265-38.487-38.487-38.487 c-15.23,0-27.62,12.391-27.62,27.621c0,5.522,4.477,10,10,10s10-4.478,10-10c0-4.202,3.418-7.621,7.62-7.621 c10.194,0,18.487,8.293,18.487,18.487c0,19.91-16.198,36.108-36.107,36.109C96.978,436,68,407.022,68,371.403 c0-61.041,49.661-110.702,110.702-110.702C277.521,260.701,358.515,338.458,363.728,436z M294.841,234.44 c-2.399,2.4-5.59,3.722-8.983,3.722c-3.394,0-6.584-1.321-8.984-3.722c-2.4-2.399-3.722-5.59-3.722-8.984 c-0.001-3.394,1.321-6.585,3.721-8.984l22.848-22.848l17.968,17.968L294.841,234.44z M331.831,197.449l-17.968-17.968 L429.945,63.399l17.968,17.968L331.831,197.449z M462.056,67.224l-17.968-17.968l25.114-25.113L487.17,42.11L462.056,67.224z"/> </g> </g></symbol><symbol id="drama" viewBox="-32 0 480 480.70185"><title>drama</title><path d="m169.71875 132.75c6.375 3.605469 13.625 5.375 20.945312 5.113281 5.042969-.03125 10.070313-.617187 14.984376-1.753906 9.582031-1.929687 18.519531-6.257813 25.972656-12.582031 1.953125-1.761719 3.660156-3.777344 5.074218-5.992188 2.691407-3.988281 3.65625-8.894531 2.671876-13.601562-1.15625-4.738282-4.179688-8.804688-8.382813-11.273438-11.125-5.609375-23.957031-6.808594-35.929687-3.359375-12.324219 2.066407-23.414063 8.707031-31.046876 18.601563-2.695312 3.984375-3.65625 8.890625-2.671874 13.597656 1.160156 4.730469 4.183593 8.785156 8.382812 11.25zm7.847656-16.390625c5.480469-6.136719 12.914063-10.1875 21.039063-11.464844 3.710937-.859375 7.503906-1.300781 11.3125-1.320312 4.328125-.230469 8.636719.671875 12.511719 2.609375 1.007812.628906 1.296874 1.117187 1.335937 1.300781-.066406.570313-.285156 1.105469-.628906 1.5625-5.476563 6.132813-12.910157 10.179687-21.035157 11.453125-7.851562 2.328125-16.265624 1.871094-23.824218-1.285156-1.007813-.632813-1.292969-1.121094-1.335938-1.304688.066406-.5625.285156-1.097656.625-1.550781zm0 0"/><path d="m118.984375 132.75c4.238281-2.378906 7.273437-6.4375 8.363281-11.175781 1.085938-4.738281.125-9.714844-2.652344-13.703125-7.636718-9.882813-18.722656-16.515625-31.039062-18.570313-11.972656-3.46875-24.8125-2.269531-35.9375 3.351563-4.234375 2.382812-7.269531 6.441406-8.355469 11.179687-1.085937 4.734375-.128906 9.710938 2.644531 13.703125 7.632813 9.882813 18.722657 16.511719 31.039063 18.566406 4.917969 1.144532 9.945313 1.734376 14.992187 1.761719 7.320313.261719 14.570313-1.507812 20.945313-5.113281zm-32.386719-12.25c-8.121094-1.273438-15.554687-5.320312-21.03125-11.453125-.378906-.46875-.589844-1.046875-.609375-1.648437 0-.097657.304688-.585938 1.3125-1.214844 3.875-1.9375 8.1875-2.839844 12.511719-2.609375 3.8125.019531 7.609375.464843 11.320312 1.328125 8.125 1.273437 15.558594 5.320312 21.035157 11.457031.351562.464844.570312 1.015625.628906 1.597656v.089844c0 .09375-.300781.582031-1.3125 1.214844-7.566406 3.160156-16 3.601562-23.855469 1.238281zm0 0"/><path d="m199.144531 194.667969c.753907-2.800781-.070312-5.789063-2.148437-7.8125-2.078125-2.023438-5.09375-2.761719-7.871094-1.929688-2.78125.832031-4.890625 3.101563-5.519531 5.9375-3.679688 14.972657-20.183594 25.839844-39.253907 25.839844-18.671874 0-35.113281-10.601563-39.089843-25.203125-.683594-2.828125-2.851563-5.066406-5.660157-5.835938-2.808593-.769531-5.816406.046876-7.847656 2.136719-2.03125 2.085938-2.769531 5.113281-1.921875 7.902344 5.925781 21.796875 28.351563 37 54.519531 37 26.335938 0 49.382813-16 54.792969-38.035156zm0 0"/><path d="m398.75 175.398438c-15.863281-12.425782-38.734375-6.847657-65.230469-.34375-22.226562 6.378906-45.246093 9.542968-68.367187 9.398437 14.476562-38.308594 22.324218-78.804687 23.199218-119.75 0-29.679687-5.601562-47.890625-17.601562-57.304687-15.855469-12.425782-38.742188-6.839844-65.230469-.34375-19.925781 5.667968-40.464843 8.90625-61.167969 9.648437-20.710937-.738281-41.257812-3.980469-61.191406-9.648437-26.503906-6.496094-49.378906-12.082032-65.234375.34375-11.976562 9.414062-17.574219 27.625-17.574219 57.304687 0 95.472656 59.199219 241.496094 138.773438 247.703125 20.675781 82.167969 70.363281 168.296875 133.226562 168.296875 82.167969 0 144-150.449219 144-248 0-29.679687-5.601562-47.890625-17.601562-57.304687zm-343.453125 42.101562c-24.207031-47.394531-37.511719-99.597656-38.945313-152.796875 0-23.707031 3.847657-38.753906 11.464844-44.714844 4.285156-2.929687 9.433594-4.339843 14.613282-4 12.507812.863281 24.886718 3.070313 36.921874 6.585938 21.171876 6.019531 43 9.417969 65 10.128906 21.996094-.703125 43.828126-4.101563 65-10.113281 22.4375-5.488282 41.824219-10.246094 51.535157-2.601563 7.617187 5.960938 11.464843 21.007813 11.464843 44.714844-.976562 42.53125-9.734374 84.523437-25.832031 123.902344-9.6875 25.269531-23.050781 48.964843-39.664062 70.328125-6.164063 7.707031-13.105469 14.761718-20.710938 21.046875-11.378906 9.957031-25.742187 15.839843-40.832031 16.722656h-.960938c-30.703124 0-63.199218-28.867187-89.054687-79.203125zm150.78125 66.027344c1.066406-1.042969 2.113281-2.089844 3.199219-3.203125.902344-.941407 1.808594-1.90625 2.714844-2.894531 1.066406-1.152344 2.132812-2.332032 3.199218-3.542969.398438-.464844.800782-.898438 1.214844-1.359375.570312.101562 1.160156.222656 1.746094.367187 8.121094 1.273438 15.554687 5.320313 21.03125 11.457031.351562.464844.570312 1.015626.632812 1.597657v.089843c0 .09375-.304687.582032-1.3125 1.214844-7.546875 3.164063-15.949218 3.621094-23.792968 1.296875-3.484376-.800781-6.886719-1.9375-10.152344-3.394531.464844-.542969.984375-1.109375 1.519531-1.636719zm155.328125 101.972656c-25.855469 50.335938-58.351562 79.203125-89.054688 79.203125-51.199218 0-96.679687-75.503906-116.878906-152.914063.292969-.046874.589844-.167968.894532-.214843 3.066406-.539063 6.097656-1.273438 9.070312-2.199219.402344-.121094.800781-.289062 1.195312-.417969 2.835938-.945312 5.617188-2.050781 8.335938-3.304687.527344-.238282 1.046875-.453125 1.597656-.710938 3.019532-1.46875 5.957032-3.097656 8.800782-4.878906.632812-.394531 1.265624-.800781 1.886718-1.214844 1.335938-.875 2.671875-1.753906 4-2.707031 6.128906 3.71875 12.820313 6.40625 19.816406 7.960937 4.917969 1.144532 9.945313 1.734376 14.992188 1.761719 7.320312.261719 14.570312-1.507812 20.945312-5.113281 4.234376-2.382812 7.269532-6.441406 8.355469-11.175781 1.085938-4.738281.128907-9.710938-2.644531-13.703125-6.3125-8.480469-15.351562-14.53125-25.601562-17.128906 1.160156-1.601563 2.320312-3.199219 3.464843-4.929688.761719-1.117188 1.503907-2.300781 2.257813-3.453125 1.054687-1.601563 2.109375-3.203125 3.144531-4.890625.796875-1.285156 1.597656-2.632812 2.398437-3.957031.960938-1.601563 1.914063-3.203125 2.855469-4.84375.800781-1.421875 1.601563-2.878907 2.402344-4.335938.886719-1.597656 1.773437-3.238281 2.644531-4.894531.800782-1.535156 1.601563-3.105469 2.402344-4.671875s1.648438-3.273437 2.457031-4.945313c.804688-1.671874 1.597657-3.292968 2.359375-4.964843.757813-1.671875 1.542969-3.328125 2.296875-5.027344.75-1.695313 1.535157-3.46875 2.285157-5.230469.351562-.800781.722656-1.601562 1.074218-2.449218 26.4375 1.125 52.878906-2.117188 78.261719-9.597657 22.441406-5.496093 41.824219-10.25 51.535156-2.601562 7.546875 6 11.394531 21.046875 11.394531 44.753906-1.433593 53.199219-14.738281 105.402344-38.945312 152.796875zm0 0"/><path d="m367.359375 271.855469c-3.03125-13.34375-22.089844-19.625-44.3125-14.5625-8.851563 1.851562-17.171875 5.679687-24.335937 11.199219-6.972657 4.585937-10.632813 12.816406-9.367188 21.066406 2.320312 10.230468 14.0625 16.304687 29.429688 16.304687 5.011718-.03125 10-.613281 14.882812-1.746093 8.851562-1.851563 17.171875-5.679688 24.335938-11.199219 6.953124-4.578125 10.613281-12.78125 9.375-21.015625zm-19.511719 8.6875c-5.246094 3.945312-11.300781 6.675781-17.730468 8-15.085938 3.4375-24.734376-.554688-25.175782-2.488281-.09375-.425782.679688-2.503907 3.90625-5.152344 5.25-3.945313 11.304688-6.675782 17.734375-8 3.734375-.871094 7.558594-1.328125 11.394531-1.351563 8.398438 0 13.453126 2.445313 13.78125 3.839844.097657.421875-.679687 2.503906-3.910156 5.152344zm0 0"/><path d="m272.566406 352.765625c-26.335937 0-49.382812 16-54.785156 38.03125-1.050781 4.289063 1.570312 8.617187 5.859375 9.671875.625.15625 1.265625.234375 1.910156.234375 3.679688-.007813 6.882813-2.523437 7.761719-6.097656 3.679688-14.976563 20.191406-25.839844 39.253906-25.839844 18.671875 0 35.113282 10.601563 39.089844 25.199219 1.160156 4.265625 5.554688 6.78125 9.820312 5.621094 4.261719-1.160157 6.777344-5.554688 5.617188-9.820313-5.941406-21.792969-28.34375-37-54.527344-37zm0 0"/></symbol><symbol id="tw" viewBox="0 0 612 612"><title>tw</title><path d="M612,116.258c-22.525,9.981-46.694,16.75-72.088,19.772c25.929-15.527,45.777-40.155,55.184-69.411 c-24.322,14.379-51.169,24.82-79.775,30.48c-22.907-24.437-55.49-39.658-91.63-39.658c-69.334,0-125.551,56.217-125.551,125.513 c0,9.828,1.109,19.427,3.251,28.606C197.065,206.32,104.556,156.337,42.641,80.386c-10.823,18.51-16.98,40.078-16.98,63.101 c0,43.559,22.181,81.993,55.835,104.479c-20.575-0.688-39.926-6.348-56.867-15.756v1.568c0,60.806,43.291,111.554,100.693,123.104 c-10.517,2.83-21.607,4.398-33.08,4.398c-8.107,0-15.947-0.803-23.634-2.333c15.985,49.907,62.336,86.199,117.253,87.194 c-42.947,33.654-97.099,53.655-155.916,53.655c-10.134,0-20.116-0.612-29.944-1.721c55.567,35.681,121.536,56.485,192.438,56.485 c230.948,0,357.188-191.291,357.188-357.188l-0.421-16.253C573.872,163.526,595.211,141.422,612,116.258z"/></symbol><symbol id="fb" viewBox="0 0 486.392 486.392"><title>fb</title><path d="M273.443,159.354l0.122-41.951c0-21.857,1.52-33.561,32.831-33.561h57.941V0h-83.021 c-80.559,0-99.102,41.617-99.102,109.985l0.091,49.369l-61.133,0.03v83.811h61.133v243.196h91.168l0.061-243.196l82.778-0.03 l8.907-83.811H273.443z"/></symbol><symbol id="be" viewBox="0 0 430.123 430.123"><title>be</title><path id="Behance" d="M388.432,119.12H280.659V92.35h107.782v26.77H388.432z M208.912,228.895 c6.954,10.771,10.429,23.849,10.429,39.203c0,15.878-3.918,30.122-11.889,42.704c-5.071,8.326-11.367,15.359-18.932,21.021 c-8.52,6.548-18.607,11.038-30.203,13.437c-11.633,2.403-24.224,3.617-37.787,3.617H0V81.247h129.25 c32.579,0.53,55.676,9.969,69.315,28.506c8.184,11.369,12.239,25.011,12.239,40.868c0,16.362-4.104,29.454-12.368,39.401 c-4.597,5.577-11.388,10.65-20.378,15.229C191.675,210.236,202.007,218.086,208.912,228.895z M61.722,186.76h56.632 c11.638,0,21.046-2.212,28.292-6.634c7.241-4.415,10.854-12.263,10.854-23.531c0-12.449-4.784-20.712-14.375-24.689 c-8.244-2.763-18.792-4.186-31.591-4.186H61.722V186.76z M162.953,264.275c0-13.902-5.682-23.513-17.023-28.67 c-6.342-2.931-15.29-4.429-26.763-4.536H61.722v71.322h56.556c11.619,0,20.612-1.521,27.102-4.694 C157.084,291.863,162.953,280.76,162.953,264.275z M428.419,220.736c1.302,8.756,1.891,21.46,1.652,38.065H290.493 c0.77,19.266,7.421,32.739,20.035,40.449c7.607,4.835,16.83,7.196,27.63,7.196c11.388,0,20.67-2.879,27.815-8.797 c3.893-3.137,7.327-7.565,10.296-13.152h51.16c-1.34,11.379-7.5,22.92-18.57,34.648c-17.151,18.641-41.205,27.988-72.097,27.988 c-25.52,0-48.011-7.883-67.533-23.592C249.772,307.777,240,282.211,240,246.746c0-33.257,8.773-58.712,26.378-76.43 c17.67-17.751,40.474-26.586,68.583-26.586c16.661,0,31.68,2.978,45.079,8.965c13.357,5.993,24.396,15.425,33.09,28.388 C420.998,192.499,426.058,205.699,428.419,220.736z M378.062,225.73c-0.938-13.322-5.386-23.405-13.395-30.296 c-7.943-6.91-17.866-10.379-29.706-10.379c-12.886,0-22.836,3.708-29.906,10.996c-7.118,7.273-11.547,17.161-13.362,29.68H378.062 L378.062,225.73z"/></symbol><symbol id="dribble" viewBox="0 0 508.52 508.52"><title>dribble</title><path d="M254.26,0C114.067,0,0,114.067,0,254.26s114.067,254.26,254.26,254.26 s254.26-114.067,254.26-254.26S394.452,0,254.26,0z M422.357,117.246c30.257,36.963,48.532,84.033,49.009,135.298 c-7.183-1.526-78.916-16.082-151.221-6.992l-4.672-11.219c-4.513-10.584-9.344-21.104-14.397-31.465 C381.39,170.1,417.781,123.443,422.357,117.246z M254.26,37.408c55.174,0,105.613,20.69,143.943,54.729 c-3.877,5.562-36.55,49.485-113.781,78.439c-35.596-65.377-75.038-119.089-81.045-127.13 C219.712,39.506,236.748,37.408,254.26,37.408z M161.932,58.035c5.721,7.85,44.527,61.626,80.505,125.604 c-101.577,26.983-191.044,26.602-200.77,26.475C55.746,142.703,101.164,86.703,161.932,58.035z M37.058,254.578l0.095-6.643 c9.503,0.222,114.767,1.557,223.177-30.893c6.261,12.173,12.173,24.536,17.639,36.868l-8.581,2.574 c-111.97,36.2-171.562,134.917-176.52,143.307C58.226,361.303,37.09,310.388,37.058,254.578z M254.228,471.747 c-50.185,0-96.46-17.099-133.296-45.83c3.909-7.946,47.896-92.932,170.386-135.616l1.43-0.477 c30.511,79.202,43.065,145.627,46.339,164.697C313.057,465.613,284.358,471.779,254.228,471.747z M375.605,434.625 c-2.225-13.222-13.825-76.786-42.175-154.844c68.046-10.901,127.829,6.96,135.266,9.312 C458.971,349.48,424.36,401.699,375.605,434.625z"/></symbol><symbol id="in" viewBox="0 0 430.117 430.117"><title>in</title><path id="LinkedIn" d="M430.117,261.543V420.56h-92.188V272.193c0-37.271-13.334-62.707-46.703-62.707 c-25.473,0-40.632,17.142-47.301,33.724c-2.432,5.928-3.058,14.179-3.058,22.477V420.56h-92.219c0,0,1.242-251.285,0-277.32h92.21 v39.309c-0.187,0.294-0.43,0.611-0.606,0.896h0.606v-0.896c12.251-18.869,34.13-45.824,83.102-45.824 C384.633,136.724,430.117,176.361,430.117,261.543z M52.183,9.558C20.635,9.558,0,30.251,0,57.463 c0,26.619,20.038,47.94,50.959,47.94h0.616c32.159,0,52.159-21.317,52.159-47.94C103.128,30.251,83.734,9.558,52.183,9.558z M5.477,420.56h92.184v-277.32H5.477V420.56z"/></symbol><symbol id="vk" viewBox="0 0 548.358 548.358"><title>vk</title><path d="M545.451,400.298c-0.664-1.431-1.283-2.618-1.858-3.569c-9.514-17.135-27.695-38.167-54.532-63.102l-0.567-0.571 l-0.284-0.28l-0.287-0.287h-0.288c-12.18-11.611-19.893-19.418-23.123-23.415c-5.91-7.614-7.234-15.321-4.004-23.13 c2.282-5.9,10.854-18.36,25.696-37.397c7.807-10.089,13.99-18.175,18.556-24.267c32.931-43.78,47.208-71.756,42.828-83.939 l-1.701-2.847c-1.143-1.714-4.093-3.282-8.846-4.712c-4.764-1.427-10.853-1.663-18.278-0.712l-82.224,0.568 c-1.332-0.472-3.234-0.428-5.712,0.144c-2.475,0.572-3.713,0.859-3.713,0.859l-1.431,0.715l-1.136,0.859 c-0.952,0.568-1.999,1.567-3.142,2.995c-1.137,1.423-2.088,3.093-2.848,4.996c-8.952,23.031-19.13,44.444-30.553,64.238 c-7.043,11.803-13.511,22.032-19.418,30.693c-5.899,8.658-10.848,15.037-14.842,19.126c-4,4.093-7.61,7.372-10.852,9.849 c-3.237,2.478-5.708,3.525-7.419,3.142c-1.715-0.383-3.33-0.763-4.859-1.143c-2.663-1.714-4.805-4.045-6.42-6.995 c-1.622-2.95-2.714-6.663-3.285-11.136c-0.568-4.476-0.904-8.326-1-11.563c-0.089-3.233-0.048-7.806,0.145-13.706 c0.198-5.903,0.287-9.897,0.287-11.991c0-7.234,0.141-15.085,0.424-23.555c0.288-8.47,0.521-15.181,0.716-20.125 c0.194-4.949,0.284-10.185,0.284-15.705s-0.336-9.849-1-12.991c-0.656-3.138-1.663-6.184-2.99-9.137 c-1.335-2.95-3.289-5.232-5.853-6.852c-2.569-1.618-5.763-2.902-9.564-3.856c-10.089-2.283-22.936-3.518-38.547-3.71 c-35.401-0.38-58.148,1.906-68.236,6.855c-3.997,2.091-7.614,4.948-10.848,8.562c-3.427,4.189-3.905,6.475-1.431,6.851 c11.422,1.711,19.508,5.804,24.267,12.275l1.715,3.429c1.334,2.474,2.666,6.854,3.999,13.134c1.331,6.28,2.19,13.227,2.568,20.837 c0.95,13.897,0.95,25.793,0,35.689c-0.953,9.9-1.853,17.607-2.712,23.127c-0.859,5.52-2.143,9.993-3.855,13.418 c-1.715,3.426-2.856,5.52-3.428,6.28c-0.571,0.76-1.047,1.239-1.425,1.427c-2.474,0.948-5.047,1.431-7.71,1.431 c-2.667,0-5.901-1.334-9.707-4c-3.805-2.666-7.754-6.328-11.847-10.992c-4.093-4.665-8.709-11.184-13.85-19.558 c-5.137-8.374-10.467-18.271-15.987-29.691l-4.567-8.282c-2.855-5.328-6.755-13.086-11.704-23.267 c-4.952-10.185-9.329-20.037-13.134-29.554c-1.521-3.997-3.806-7.04-6.851-9.134l-1.429-0.859c-0.95-0.76-2.475-1.567-4.567-2.427 c-2.095-0.859-4.281-1.475-6.567-1.854l-78.229,0.568c-7.994,0-13.418,1.811-16.274,5.428l-1.143,1.711 C0.288,140.146,0,141.668,0,143.763c0,2.094,0.571,4.664,1.714,7.707c11.42,26.84,23.839,52.725,37.257,77.659 c13.418,24.934,25.078,45.019,34.973,60.237c9.897,15.229,19.985,29.602,30.264,43.112c10.279,13.515,17.083,22.176,20.412,25.981 c3.333,3.812,5.951,6.662,7.854,8.565l7.139,6.851c4.568,4.569,11.276,10.041,20.127,16.416 c8.853,6.379,18.654,12.659,29.408,18.85c10.756,6.181,23.269,11.225,37.546,15.126c14.275,3.905,28.169,5.472,41.684,4.716h32.834 c6.659-0.575,11.704-2.669,15.133-6.283l1.136-1.431c0.764-1.136,1.479-2.901,2.139-5.276c0.668-2.379,1-5,1-7.851 c-0.195-8.183,0.428-15.558,1.852-22.124c1.423-6.564,3.045-11.513,4.859-14.846c1.813-3.33,3.859-6.14,6.136-8.418 c2.282-2.283,3.908-3.666,4.862-4.142c0.948-0.479,1.705-0.804,2.276-0.999c4.568-1.522,9.944-0.048,16.136,4.429 c6.187,4.473,11.99,9.996,17.418,16.56c5.425,6.57,11.943,13.941,19.555,22.124c7.617,8.186,14.277,14.271,19.985,18.274 l5.708,3.426c3.812,2.286,8.761,4.38,14.853,6.283c6.081,1.902,11.409,2.378,15.984,1.427l73.087-1.14 c7.229,0,12.854-1.197,16.844-3.572c3.998-2.379,6.373-5,7.139-7.851c0.764-2.854,0.805-6.092,0.145-9.712 C546.782,404.25,546.115,401.725,545.451,400.298z"/></symbol><symbol id="instagram" viewBox="0 0 510 510"><title>instagram</title><path d="M459,0H51C22.95,0,0,22.95,0,51v408c0,28.05,22.95,51,51,51h408c28.05,0,51-22.95,51-51V51C510,22.95,487.05,0,459,0z M255,153c56.1,0,102,45.9,102,102c0,56.1-45.9,102-102,102c-56.1,0-102-45.9-102-102C153,198.9,198.9,153,255,153z M63.75,459 C56.1,459,51,453.9,51,446.25V229.5h53.55C102,237.15,102,247.35,102,255c0,84.15,68.85,153,153,153c84.15,0,153-68.85,153-153 c0-7.65,0-17.85-2.55-25.5H459v216.75c0,7.65-5.1,12.75-12.75,12.75H63.75z M459,114.75c0,7.65-5.1,12.75-12.75,12.75h-51 c-7.65,0-12.75-5.1-12.75-12.75v-51c0-7.65,5.1-12.75,12.75-12.75h51C453.9,51,459,56.1,459,63.75V114.75z"/></symbol><symbol id="download" viewBox="0 0 471.2 471.2"><title>download</title><path d="M457.7,230.15c-7.5,0-13.5,6-13.5,13.5v122.8c0,33.4-27.2,60.5-60.5,60.5H87.5c-33.4,0-60.5-27.2-60.5-60.5v-124.8 c0-7.5-6-13.5-13.5-13.5s-13.5,6-13.5,13.5v124.8c0,48.3,39.3,87.5,87.5,87.5h296.2c48.3,0,87.5-39.3,87.5-87.5v-122.8 C471.2,236.25,465.2,230.15,457.7,230.15z"/><path d="M226.1,346.75c2.6,2.6,6.1,4,9.5,4s6.9-1.3,9.5-4l85.8-85.8c5.3-5.3,5.3-13.8,0-19.1c-5.3-5.3-13.8-5.3-19.1,0l-62.7,62.8 V30.75c0-7.5-6-13.5-13.5-13.5s-13.5,6-13.5,13.5v273.9l-62.8-62.8c-5.3-5.3-13.8-5.3-19.1,0c-5.3,5.3-5.3,13.8,0,19.1 L226.1,346.75z"/></symbol><symbol id="arrow" viewBox="0 0 31.49 31.49"><title>arrow</title><path d="M21.205,5.007c-0.429-0.444-1.143-0.444-1.587,0c-0.429,0.429-0.429,1.143,0,1.571l8.047,8.047H1.111 C0.492,14.626,0,15.118,0,15.737c0,0.619,0.492,1.127,1.111,1.127h26.554l-8.047,8.032c-0.429,0.444-0.429,1.159,0,1.587 c0.444,0.444,1.159,0.444,1.587,0l9.952-9.952c0.444-0.429,0.444-1.143,0-1.571L21.205,5.007z"/></symbol><symbol id="share" viewBox="0 0 481.6 481.6"><title>share</title><path d="M381.6,309.4c-27.7,0-52.4,13.2-68.2,33.6l-132.3-73.9c3.1-8.9,4.8-18.5,4.8-28.4c0-10-1.7-19.5-4.9-28.5l132.2-73.8 c15.7,20.5,40.5,33.8,68.3,33.8c47.4,0,86.1-38.6,86.1-86.1S429,0,381.5,0s-86.1,38.6-86.1,86.1c0,10,1.7,19.6,4.9,28.5 l-132.1,73.8c-15.7-20.6-40.5-33.8-68.3-33.8c-47.4,0-86.1,38.6-86.1,86.1s38.7,86.1,86.2,86.1c27.8,0,52.6-13.3,68.4-33.9 l132.2,73.9c-3.2,9-5,18.7-5,28.7c0,47.4,38.6,86.1,86.1,86.1s86.1-38.6,86.1-86.1S429.1,309.4,381.6,309.4z M381.6,27.1 c32.6,0,59.1,26.5,59.1,59.1s-26.5,59.1-59.1,59.1s-59.1-26.5-59.1-59.1S349.1,27.1,381.6,27.1z M100,299.8 c-32.6,0-59.1-26.5-59.1-59.1s26.5-59.1,59.1-59.1s59.1,26.5,59.1,59.1S132.5,299.8,100,299.8z M381.6,454.5 c-32.6,0-59.1-26.5-59.1-59.1c0-32.6,26.5-59.1,59.1-59.1s59.1,26.5,59.1,59.1C440.7,428,414.2,454.5,381.6,454.5z"/></symbol></svg>