<?xml version="1.0" encoding="utf-8"?>
<!-- Generator: Adobe Illustrator 22.0.0, SVG Export Plug-In . SVG Version: 6.00 Build 0)  -->
<svg version="1.1" id="Слой_1" xmlns="http://www.w3.org/2000/svg" xmlns:xlink="http://www.w3.org/1999/xlink" x="0px" y="0px"
	 viewBox="0 0 370 240.8" xml:space="preserve">
<style type="text/css">
	.st0{fill:#FFF;}
</style>
<g>
	<path class="st0" d="M169.1,118.8c0.3,0.5,0.8,0.9,1.4,1c1,0.1,2-0.6,2.1-1.6c0.8-5.6,4-10.9,8.7-14.1c0.5-0.3,0.8-0.8,0.8-1.4
		c0-1-0.8-1.9-1.8-1.9l-1.4-0.1c-2.1-0.1-4,0.7-5.6,1.7c-1.6,1.1-2.9,2.5-3.8,4.1c-1,1.6-1.6,3.5-1.8,5.3c-0.2,1.9-0.1,3.8,0.8,5.7
		L169.1,118.8z"/>
	<path class="st0" d="M365.7,192.3l-2-1.5c-1.2-0.9-2.2-1-3.1-0.9c-0.9,0.1-1.7,0.6-2.3,1.3c-0.6,0.7-1,1.6-1,2.6
		c0,1,0.2,2.2,1.2,3.1l1.6,1.5c0.2,0.2,0.5,0.3,0.8,0.4c0.8,0.1,1.6-0.4,1.7-1.2c0.2-1.2,1.4-2.5,2.9-3.2c0.2-0.1,0.3-0.2,0.5-0.4
		C366.4,193.6,366.3,192.8,365.7,192.3z"/>
	<path class="st0" d="M230.6,121.3c0.5-1.3,0.9-2.6,1.4-3.8c0.3-0.8,0.6-1.5,0.9-2.1c0,0.2,0,0.3-0.1,0.5l-0.2,1l-0.4,2l-0.7,4
		l-0.4,2l-0.2,1c-0.1,0.5-0.1,0.9-0.2,1.3c-0.1,1.6-0.2,3-0.2,4.5c0,1.5,0.1,2.9,0.3,4.5c0.1,0.8,0.2,1.6,0.5,2.5
		c0.1,0.5,0.3,1,0.5,1.6l0.2,0.5c0.1,0.2,0.2,0.4,0.3,0.6c0.2,0.3,0.4,0.5,0.6,0.8c0.5,0.6,1.2,1.1,2.1,1.5c0.9,0.4,1.9,0.6,2.8,0.6
		c1.8-0.1,2.9-0.8,3.7-1.4c1.7-1.2,2.6-2.5,3.5-3.8c0.4-0.6,0.8-1.2,1.2-1.8c0.3-0.5,0.7-1,1.1-1.5c0.1,0.1,0.1,0.2,0.2,0.3
		c0.6,0.9,1.4,1.7,2.4,2.4c1,0.6,2.2,1,3.2,1.1c1.1,0.1,2.3,0,3.2-0.3c2-0.6,3.3-1.7,4.5-2.8c1.2-1.1,2.1-2.3,3-3.4
		c1.8-2.3,3.2-4.8,4.6-7.2l2-3.6l2.1-3.5c1.4-2.3,2.8-4.7,4.2-7l0,0c0.8,0.1,1.6,0.1,2.4,0c1-0.2,2-0.5,2.8-1
		c1.4-0.7,2.5-1.6,3.5-2.5c-0.2,0.6-0.4,1.2-0.6,1.7c-0.6,1.9-1.3,3.9-2,5.6l-0.6,1.3l-0.7,1.5c-0.2,0.5-0.5,1-0.7,1.6
		c-0.2,0.5-0.5,1.1-0.7,1.7c-0.5,1.2-0.9,2.6-0.8,4.4c0.1,0.9,0.3,1.9,0.8,2.8c0.5,1,1.2,1.8,2,2.5c0.8,0.7,1.7,1.1,2.5,1.4
		c1,0.4,2.3,0.6,3.4,0.5c2.3-0.2,3.8-1.2,4.9-2.1c2.2-1.9,3.3-4,4.1-6.1c0.8-2.1,1.3-4.4,1.3-6.6l0-0.6c0-0.4-0.2-0.7-0.5-0.9
		c-0.5-0.3-1.1-0.1-1.4,0.4l-0.8,1.4c-0.2,0.4-0.5,0.8-0.7,1.2c-0.5,0.8-1,1.6-1.6,2.3c-1.1,1.5-2.4,2.9-3.7,3.8
		c-0.6,0.5-1.3,0.7-1.7,0.7c-0.2,0-0.4,0-0.6-0.1c-0.3-0.1-0.6-0.3-0.8-0.4c-0.5-0.3-0.8-0.7-1-1.4c-0.2-0.7-0.3-1.6-0.3-2.5
		c0-0.9,0.3-1.9,0.5-2.8c0.3-1,0.7-1.8,1-2.8c0.7-2,1.3-3.9,1.9-5.9c0.6-1.9,1.3-3.8,2-5.7c0.6-1.6,1.3-3.3,2.1-4.5c0,0,0,0,0,0l0,0
		c0.1-0.1,0.2-0.3,0.3-0.4c0.5-0.7,0.5-1.7-0.1-2.4c-0.7-0.8-2-0.9-2.8-0.2l-0.1,0.1c-0.1,0.1-0.3,0.2-0.4,0.3l0,0c0,0,0,0.1,0,0.1
		c-1.1,1-2.1,2.1-3.1,3.1c-1.1,1.2-2.1,2.3-3.2,3.3c-1.1,1-2.2,1.9-3.3,2.5c-0.2,0.1-0.3,0.1-0.5,0.2l0.4-0.6c0.4-0.6,0.8-1.3,1.1-2
		c0.6-1.4,1.3-2.9,1.1-4.8c-0.1-2-1.6-4.1-3.9-4.5c-1.1-0.2-2.2,0-3,0.4c-0.9,0.4-1.6,0.9-2.3,1.6c-0.6,0.7-1.2,1.4-1.5,2.3
		c-0.2,0.5-0.3,0.9-0.4,1.5c-0.1,0.5-0.1,0.9-0.1,1.4c0.1,1.8,0.7,3.4,1.4,4.8c0.6,1.2,1.4,2.2,2.1,3.2l0,0l-4.2,7.1l-2.1,3.5
		l-2.2,3.5c-1.4,2.3-3,4.5-4.8,6.5c-0.9,1-1.8,1.9-2.8,2.7c-1,0.8-2.1,1.4-3.1,1.6c-0.5,0.1-1,0.1-1.4,0c-0.5-0.1-0.9-0.3-1.2-0.6
		c-0.7-0.5-1.1-1.5-1.4-2.6c-0.1-0.3-0.1-0.6-0.2-0.8l9.3-11.3c1.7-2.2,3.3-4.5,4.5-7.2c0.6-1.3,1-2.7,1.2-4.3
		c0.2-1.5,0.2-3.2-0.6-4.9c-0.4-0.9-0.8-1.5-1.4-2.2c-0.5-0.7-1.2-1.3-2.1-1.8c-0.9-0.5-2-0.9-3.1-0.9c-1.1,0-2.2,0.2-3.2,0.6
		c-1.9,0.8-3.3,2.1-4.4,3.4c-1.1,1.3-2,2.8-2.7,4.4c-0.2,0.4-0.3,0.9-0.4,1.2c-0.1,0.3-0.2,0.6-0.3,1c-0.2,0.7-0.4,1.3-0.6,2
		c-0.4,1.3-0.7,2.7-1,4.1c-0.3,1.4-0.6,2.8-0.8,4.2c-0.2,1.4-0.3,2.9-0.4,4.4c-0.1,1.5-0.1,3,0,4.6c0.1,1.2,0.3,2.4,0.6,3.6
		c-0.4,0.4-0.8,0.7-1.1,1.1c-0.5,0.5-1,1-1.5,1.5c-0.5,0.5-0.9,1-1.4,1.4c-0.9,0.9-2,1.7-2.9,2.1c-0.5,0.2-0.9,0.3-1,0.2
		c-0.1,0-0.1,0-0.3-0.2c-0.2-0.2-0.6-1.6-0.7-2.8c-0.2-1.3-0.2-2.6-0.3-3.9c0-1.3,0-2.6,0.1-3.9c0-0.3,0-0.6,0.1-0.9l0.1-1l0.3-2
		l0.6-4.1l0.3-2c0.1-0.6,0.2-1.4,0.2-2.2c0-0.8,0-1.7-0.3-2.8c-0.3-1-1.2-2.3-2.4-2.8c-1.3-0.6-2.6-0.5-3.6-0.1
		c-0.5,0.2-1,0.4-1.4,0.8c-0.4,0.3-0.8,0.7-1.1,1.1c-1.2,1.6-1.6,3.2-2,4.4l-1.3,3.9l-2.6,7.8l-2.6,7.8l-0.3,1l-0.2,0.5
		c-0.1,0.2-0.1,0.1-0.1,0.3c-0.2,0.5-0.5,1-0.8,1.6c0.1-1.9,0.2-3.8,0.3-5.8c0.1-1.4,0.1-2.7,0.1-4.2l-0.1-4.1l-0.1-8.2
		c0-1-0.7-1.8-1.7-2c-1.1-0.2-2.2,0.6-2.3,1.7l0,0.3c-0.8,5.1-0.9,10.2-1.3,15c-2.7,5.7-5.3,11.4-8.6,16.7c-0.1-1.1-0.2-2.2-0.3-3.2
		c-0.2-2.1-0.3-4.1-0.4-6.1c0.5-1.7,0.9-3.4,1.2-5.1c0.7-4,0.9-8.1,0.5-12.2l0,0c-0.1-0.7-0.4-1.3-1.1-1.7c-1-0.5-2.2-0.1-2.8,0.9
		l0,0c-0.3,0.5-0.5,1.1-0.8,1.6c-0.2-0.3-0.5-0.7-0.8-1c-0.9-0.9-2.2-1.7-3.5-2c-1.3-0.3-2.6-0.3-3.8,0c-1.2,0.2-2.3,0.7-3.3,1.2
		c-2,1-3.7,2.3-5.2,3.9c-0.8,0.8-1.4,1.6-2.1,2.6c-0.6,1-1.1,1.9-1.5,2.9c-1.6,3.9-2.2,8-2.7,11.9c-0.3,2-0.4,4.2-0.2,6.3
		c0.1,0.7,0.2,1.5,0.4,2.3c-0.1,0.4-0.2,0.8-0.1,1.2c-0.1,0.3-0.3,0.6-0.6,0.9c-0.5,0.7-1.2,1.4-1.9,2c-1.4,1.3-3.1,2.4-4.8,3.3
		c-0.8,0.4-1.7,0.8-2.5,1c-0.2,0-0.3,0-0.4,0c-0.1,0-0.3-0.1-0.5-0.1c-0.3-0.1-0.7-0.3-1-0.5c-1.2-0.8-2.1-2.5-2.2-4
		c-0.1-1.4,0.5-3.3,1.1-5.2c0.1-0.5,0.3-1,0.4-1.5c0.1-0.3,0.1-0.5,0.2-0.8l0.2-0.7c0.2-0.9,0.5-1.9,0.7-2.8
		c0.5-1.9,1.2-3.7,1.7-5.7c0.5-2,0.8-4.2,0.7-6.3v0c0.2-1-0.4-1.9-1.3-2.3c-1.1-0.4-2.3,0.2-2.6,1.3l0,0l-0.4,1.2
		c-0.3,0.8-0.6,1.6-0.9,2.4l-0.1,0.4c0,0.1,0,0.1-0.1,0.2c-0.2,0.6-0.3,1.1-0.5,1.7c-0.5,1.9-1,3.9-1.4,6c-0.2,1-0.3,2.1-0.4,3.2
		l-0.1,0.8c0,0.2,0,0.4-0.1,0.7c-0.1,0.5-0.1,0.9-0.2,1.4c-0.2,1-0.4,2-0.5,3.2c-0.1,1.1-0.2,2.3,0.1,3.7c0.3,1.3,0.8,2.3,1.5,3.4
		c0.7,1,1.6,1.9,2.7,2.5c0.5,0.3,1.2,0.6,1.8,0.7c0.2,0,0.3,0.1,0.5,0.1c0.2,0,0.3,0.1,0.5,0.1c0.5,0,0.8,0,1.2-0.1
		c1.2-0.3,2.2-0.8,3.2-1.3c1.9-1,3.7-2.1,5.4-3.3c0.9-0.6,1.7-1.3,2.6-2.1c0,0,0.1-0.1,0.1-0.1c0.7,0.9,1.6,1.7,2.7,2.4
		c1.2,0.7,2.7,0.9,4,0.8c2.7-0.3,4.6-1.6,6.3-2.9c1.7-1.3,3.1-2.9,4.4-4.5c0,0,0,0,0,0c0.1,1.9,0.2,3.8,0.3,5.7l0,0l-1.1,1
		c-0.7,0.7-1.5,1.3-2.2,1.9c-3,2.5-6.3,4.7-9.6,7.1c-3.2,2.4-6.4,5-8.9,8.2c-1.3,1.6-2.4,3.3-3.2,5.2c-0.4,0.9-0.8,1.9-1.1,2.9
		c-0.3,1-0.5,2-0.7,3c-0.4,2-0.5,4.1-0.5,6.1c0,1,0.1,2.1,0.3,3.1c0.1,0.5,0.2,1.1,0.3,1.6l0.4,1.5c0.6,2,1.3,3.9,2.4,5.9
		c0.6,1,1.3,2,2.2,2.8c0.9,0.8,2.1,1.6,3.4,2.1c0.7,0.2,1.4,0.4,2,0.4c0.7,0.1,1.4,0.1,1.9,0c1.1,0,2.3-0.2,3.5-0.4
		c2.3-0.5,4.7-1.4,6.8-2.8c2.1-1.4,3.9-3.3,5.3-5.2c1.5-2,2.5-4.1,3.4-6.3c1.7-4.3,2.4-8.7,2.8-12.9c0.4-4.2,0.5-8.4,0.6-12.3
		c0-1,0-2.1,0-3.1c0-1.1-0.1-2.1-0.1-3.1c-0.1-2.1-0.3-4.1-0.5-6.1c-0.1-1.7-0.3-3.4-0.5-5.1c2.8-3.6,5.2-7.5,7.5-11.3
		c0,0.2,0,0.3,0,0.5l-0.1,0.8c-0.1,0.4-0.1,0.8-0.2,1.2c-0.1,0.9-0.1,1.6,0,2.9c0.1,0.3,0.1,0.7,0.3,1.4c0.1,0.3,0.3,0.8,1.1,1.6
		c0.2,0.2,0.4,0.4,0.8,0.6c0.3,0.2,0.7,0.3,1.1,0.4c0.5,0.1,0.9,0.1,1.2,0.1c0.4,0,0.7-0.1,1-0.2c0.6-0.2,0.8-0.4,1.1-0.6
		c0.2-0.1,0.4-0.3,0.5-0.4c0.2-0.2,0.3-0.3,0.4-0.5c0.2-0.2,0.3-0.4,0.5-0.6c0.5-0.7,0.9-1.3,1.2-2c0.7-1.3,1.4-2.5,2-3.8
		c0.3-0.7,0.5-1.3,0.9-2.2c0-0.1,0.2-0.7,0.2-0.8l0.1-0.5l0.1-1c0.1-1.4,0.3-2.8,0.8-4.1c0.4-1.3,0.9-2.6,1.3-3.9
		C228.7,126.5,229.6,123.9,230.6,121.3z M275.1,101.4c0-0.2,0-0.4,0.1-0.6c0.1-0.4,0.4-0.8,0.7-1.1c0.6-0.7,1.5-1.1,2.1-1.1
		c0.3,0,0.5,0.1,0.8,0.4c0.2,0.2,0.4,0.5,0.5,1c0.1,0.9-0.2,2.1-0.6,3.2c-0.2,0.6-0.5,1.1-0.9,1.7l-0.8,1.4c-1-1.4-1.7-2.9-1.8-4.2
		C275.1,101.9,275.1,101.6,275.1,101.4z M252.8,116.6l1.8-7.8c0.6-2.2,1.8-4.7,3.5-5.9c0.9-0.6,1.8-0.8,2.8-0.5
		c0.5,0.2,1,0.5,1.5,0.9c0.5,0.4,0.9,0.9,1.2,1.3c0.6,1,0.9,2.3,0.8,3.6c-0.1,1.3-0.3,2.6-0.8,3.9c-1,2.5-2.5,4.8-4.2,6.8
		c-2.6,2.9-5.4,5.6-8.3,8.3c0.1-0.9,0.1-1.8,0.2-2.7C251.7,121.9,252.2,119.3,252.8,116.6z M233.7,114.6c0.1,0,0,0.1-0.2,0
		c0,0,0,0,0,0C233.6,114.6,233.7,114.6,233.7,114.6z M179.4,151.5C179.4,151.5,179.4,151.5,179.4,151.5c0-0.2,0-0.3,0.1-0.3
		C179.5,151.2,179.5,151.3,179.4,151.5z M191.1,150.7c-1.3,0.9-2.8,1.5-3.5,1.4c-0.4,0-0.5-0.1-0.6-0.3c-0.2-0.1-0.4-0.5-0.7-0.9
		c-0.4-0.7-0.8-2-0.9-3.5c0-0.7,0-1.5,0-2.3c0-0.4,0.1-0.8,0.1-1.2l0.1-0.6l0.1-0.7c0.3-1.9,0.6-3.7,0.9-5.4
		c0.3-1.7,0.8-3.3,1.3-4.8c0.3-0.7,0.6-1.5,0.9-2c0.3-0.6,0.7-1.1,1.2-1.7c0.9-1.2,2.1-2.2,3.3-3c1.2-0.8,2.4-1.3,3.3-1.3
		c0.4,0,0.9,0,1.4,0.3c0.5,0.3,1.1,0.8,1.5,1.4l0.3,0.4c0.2,0.2,0.4,0.4,0.6,0.6c-0.5,1.9-0.9,3.9-1.2,5.8c-0.4,3.3-0.6,6.6-0.6,9.9
		c-0.1,0.1-0.2,0.3-0.3,0.4C196.4,146,193.8,148.8,191.1,150.7z M199.6,168.9c-0.1,4-0.2,7.9-0.5,11.8c-0.4,3.9-1,7.7-2.2,11.3
		c-1.2,3.5-3,6.8-5.7,9c-1.3,1.1-2.9,1.9-4.5,2.5c-0.8,0.3-1.7,0.5-2.6,0.6c-0.9,0.2-1.5,0.2-2.2,0c-1.3-0.3-2.5-1.2-3.5-2.6
		c-1-1.4-1.7-3.1-2.4-4.9l-0.5-1.4c-0.1-0.5-0.3-0.9-0.4-1.3c-0.2-0.9-0.4-1.7-0.4-2.6c-0.2-1.8,0-3.6,0.3-5.4
		c0.4-1.8,0.9-3.5,1.7-5.2c0.4-0.8,0.8-1.6,1.3-2.4c0.5-0.8,1-1.5,1.6-2.2c2.3-2.9,5.2-5.4,8.4-7.7c3.1-2.3,6.5-4.6,9.6-7.3
		c0.6-0.5,1.2-1.1,1.8-1.6C199.6,162.6,199.6,165.7,199.6,168.9z"/>
	<path class="st0" d="M339.1,122.2C339.1,122.2,339.1,122.2,339.1,122.2C339.2,122.1,339.2,122.2,339.1,122.2z"/>
	<path class="st0" d="M358.9,117.2c0.8,2.9,0.8,5.9,0.1,8.7c-0.7,2.9-2,5.5-3.7,7.9c-3.4,4.7-8.3,8.3-13.6,10.6
		c-2.4,1-4.8,1.9-7.3,2.6c0.3-2.8,0.5-5.5,0.9-8.3c0.5-3.4,1-6.9,1.7-10.1c0.4-1.6,0.8-3.2,1.3-4.6c0.3-0.7,0.6-1.3,0.8-1.6
		c0-0.1,0.1-0.1,0.1-0.1c-0.1,0.1-0.5,0.4-1.1,0.5h0l-0.8-8c-3.8,0.4-7.3,2.1-10.1,4.2c-2.8,2.1-5,4.7-6.9,7.3
		c-3.7,5.3-6.3,11-8.4,16.7c-1.1,3.1-2.1,6.3-3,9.4c-0.5,0.1-1.1,0.3-1.6,0.4c0,0,0,0-0.1,0c-0.8,0.3-1.3,1.1-1,1.9
		c0.2,0.8,1,1.2,1.8,1.1c-0.4,1.6-0.8,3.1-1.1,4.7c-1.3,6-2,11.9-3.4,17.4c-1.3,5.5-3.5,10.6-7,14.8c-1.7,2.1-3.7,4-5.9,5.5
		c-2.2,1.5-4.6,2.6-7.1,3.1c-2.5,0.5-5.1,0.3-7.5-0.5c-1.2-0.4-2.5-1-3.5-1.7c-1-0.7-2-1.5-2.8-2.5c-1.6-2-2.5-4.5-2.9-7.2
		c0-0.3-0.1-0.6-0.1-0.9c0.9-0.1,1.9-0.1,2.8-0.2c6-0.7,12-2.5,17.3-5.7c2.6-1.6,5.1-3.6,7.1-6.1c2-2.5,3.5-5.5,4.2-8.7
		c0.8-3.3,0.4-7.1-1.8-10.2c-1.1-1.5-2.4-2.7-4.2-3.6c-1.7-0.9-3.7-1.2-5.5-1.1c-3.7,0.2-6.8,1.7-9.6,3.4c-1.4,0.9-2.7,1.8-3.9,2.9
		c-1.2,1-2.4,2.1-3.5,3.4c-2.2,2.5-3.8,5.4-5.2,8.3c-1.3,2.9-2.4,6-3,9.2c-0.5,2.3-0.7,4.6-0.7,7.1c-0.1,0-0.2,0-0.3,0
		c-2.9-0.2-5.8-0.8-8.6-1.7c-5.6-1.8-10.8-4.9-15.1-9c-4.3-4.1-7.6-9.1-9.6-14.7c1.8,5.6,5.1,10.8,9.3,15.1
		c4.2,4.2,9.4,7.5,15.1,9.6c2.8,1,5.8,1.7,8.8,2c0.1,0,0.3,0,0.4,0c0,0.6,0.1,1.2,0.1,1.7c0.4,3.4,1.5,7.1,3.8,10.2
		c1.1,1.5,2.5,2.9,4.1,4c0.4,0.3,0.8,0.5,1.2,0.8c0.4,0.2,0.8,0.4,1.2,0.7c0.8,0.4,1.6,0.8,2.5,1.1c3.4,1.3,7.3,1.7,10.9,1
		c3.6-0.6,6.9-2.1,9.8-4c2.9-1.9,5.3-4.3,7.4-6.8c4.2-5.1,6.9-11.4,8.3-17.5c1.4-6.1,2.1-12,3.2-17.6c0.5-2.7,1.1-5.4,1.8-8.1
		c3.4-0.8,6.8-1.5,10.2-2.3c1.3-0.3,2.6-0.6,3.9-0.9c-0.3,3-0.5,6.1-0.6,9.1c-0.1,1.8-0.1,3.6-0.1,5.4c0,0.5,0,0.9,0,1.4l0,1.3
		l0.1,2.7c0.2,3.6,0.3,7.2,1.1,10.9c0.4,1.8,0.9,3.7,1.6,5.5c0.4,0.9,0.8,1.8,1.3,2.6c0.5,0.8,1,1.7,1.6,2.5c2.4,3.2,6,5.4,9.7,6.3
		l0.1,0c0.6,0.1,1.2-0.1,1.4-0.7c0.3-0.6,0-1.4-0.6-1.7c-1.5-0.7-2.9-1.6-4.1-2.7c-1.2-1.1-2.3-2.3-3.1-3.6
		c-1.7-2.7-2.7-5.9-3.2-9.2c-0.5-3.3-0.8-6.7-0.9-10.2l-0.1-2.6l0-1.3l0-1.2c0-1.7,0.1-3.5,0.2-5.2c0.2-3.5,0.4-7.1,0.7-10.6
		c2.8-0.9,5.5-1.9,8.2-3.2c5.4-2.6,10.3-6.5,13.6-11.6c1.7-2.5,2.9-5.3,3.4-8.2C360,123.1,359.8,120,358.9,117.2z M266.9,180.9
		c0.4-2.8,1.2-5.5,2.2-8.2c1.1-2.6,2.4-5.2,4.1-7.4c1.7-2.2,3.9-4.2,6.2-5.8c2.3-1.6,4.9-2.9,7.5-3.2c1.3-0.1,2.6,0,3.8,0.6
		c1.2,0.5,2.2,1.4,3.1,2.4c1.6,2.1,2.1,5,1.6,7.7c-0.5,2.8-1.7,5.5-3.4,7.8c-1.7,2.3-3.9,4.3-6.3,5.9c-4.9,3.2-10.6,5.1-16.4,5.9
		c-0.9,0.1-1.8,0.2-2.8,0.3C266.4,185,266.5,182.9,266.9,180.9z M324.8,149.2c-3,0.6-6,1-9,1.6c0.5-1.9,1.1-3.9,1.7-5.8
		c0.9-2.8,1.9-5.5,3-8.1c1.2-2.6,2.4-5.2,3.9-7.7c1.5-2.4,3.3-4.7,5.4-6.6c2-1.7,4.3-3.1,7-3.8c-0.6,0.3-1.1,0.8-1.5,1.4
		c-0.5,0.7-0.9,1.6-1.3,2.4c-0.7,1.7-1.2,3.4-1.7,5.1c-0.5,1.7-0.8,3.5-1.2,5.3c-0.3,1.8-0.6,3.5-0.8,5.3c-0.5,3.3-0.8,6.7-1.2,10
		C327.8,148.6,326.3,148.9,324.8,149.2z"/>
	<polygon class="st0" points="87.7,81.5 88.3,82.2 88.8,82.7 89,83 89.3,83.2 92.7,87.1 93,87.4 93.5,87.9 93.8,88.3 95.7,90.4 
		96.1,90.5 96.4,90.2 96.3,89.8 95.6,89.1 95.3,88.7 94.4,87.7 94.2,87.4 93.9,87.2 93.7,86.9 92.8,85.8 92.5,85.5 91.5,84.3 
		91.9,83.6 92.2,83.3 92.3,83 92.6,82.7 93,82.8 94.7,83.6 95,83.7 95.4,83.8 95.7,84 96.4,84.3 96.7,84.5 97.4,84.8 97.7,84.9 
		98.1,85.1 98.4,85.3 98.7,85.4 99.4,85.8 100.4,86.2 100.9,86.3 101.3,86.1 101.4,85.8 100.9,85.5 100.1,85.1 99.8,85 99.5,84.8 
		99.2,84.6 98.5,84.3 97.9,84 97.2,83.7 96.9,83.5 94.6,82.5 94,82.2 93.6,82.1 93.2,81.9 93,81.5 92.9,81.2 92.9,80.8 92.8,80.4 
		92.9,80.1 92.7,79 92.6,78.7 92.5,78.4 92.4,78 92.4,77.7 92.1,77.3 92,77 90.8,74.8 90.5,74.7 90.1,75 90.2,75.4 90.4,75.7 
		90.6,76 90.9,76.7 91.1,77 91.3,77.4 91.4,77.7 91.6,78 91.7,78.8 91.8,79.1 91.9,79.6 92,80.2 92,80.5 92.1,80.9 92,81.3 
		91.9,81.6 91.9,82 91.7,82.3 91.6,82.7 91.2,83.4 90.8,83.7 89.8,82.5 89.4,82.2 87.9,80.5 87.7,80.3 87.5,80.1 87.2,79.7 
		86.9,79.5 86.7,79.2 86.3,78.8 85.9,78.7 85.5,79 85.7,79.4 	"/>
	<polygon class="st0" points="101.4,66.7 101.5,67 104.5,71 104.8,71.5 105.8,72.7 106.2,73.4 107.2,74.6 107.5,75.2 107.8,75.5 
		108,75.7 108.6,76.4 108.8,76.6 109.1,76.9 109.4,77.2 109.7,77.3 110,77.5 110.4,77.6 110.7,77.7 111.1,77.7 111.7,77.6 
		112.8,77.2 113.2,76.9 113.7,76.6 114,76.3 114.1,76.1 114.4,75.8 114.6,75.5 114.7,75.1 114.8,74.8 114.8,74.5 114.8,74.2 
		114.7,73.8 114.6,73.5 114.6,73.1 114.4,72.8 114.2,72.4 114.1,72.1 113.9,71.7 112.2,69.4 112.1,69.1 111.9,68.8 111.6,68.6 
		110.8,67.3 110.5,67.1 110.3,66.6 109.9,66.2 109.8,66 109.5,65.7 109.3,65.4 109.1,65.1 108.9,64.8 108,63.6 107.8,63.4 
		107.4,62.7 107.2,62.4 107,62.1 106.6,62 106.2,62.3 106.3,62.7 107.7,64.7 107.9,65 108.2,65.3 109.2,66.7 109.5,67.1 113.1,72.1 
		113.3,72.4 113.4,72.7 113.6,73.1 113.9,74.1 113.9,74.4 113.9,74.8 113.7,75.4 113.2,76 112.8,76.3 111.7,76.9 111.4,76.9 
		111,76.9 110.3,76.7 110,76.4 109.7,76.2 108.6,75.1 107.2,73.1 106.9,72.8 105.9,71.4 105.7,71.1 105.4,70.7 105.1,70.3 104.9,70 
		102.6,66.9 102.4,66.6 102.2,66.4 102,66.1 101.8,65.8 101.3,65.7 101,66 101.1,66.4 	"/>
	<polygon class="st0" points="118.5,55.1 118.7,55.4 118.8,55.7 119.2,56.3 119.4,56.6 119.5,56.9 119.9,57.3 120.1,57.8 
		120.3,58.1 120.4,58.4 121.2,59.7 121.4,60 121.6,60.3 121.8,60.6 122.4,61.6 122.5,61.9 123.1,62.9 125.8,67.4 126.2,67.8 
		126.7,67.8 127,67.6 127.3,67.4 128.2,66.8 128.5,66.6 130.4,65.5 130.7,65.4 130.9,65 130.7,64.7 130.3,64.7 130,64.9 129.6,65.1 
		128.8,65.5 128.5,65.8 128.2,65.9 127.6,66.3 127.3,66.4 126.9,66.7 126.6,66.7 126.2,66.4 126,66.1 125.9,65.8 123.8,62.3 
		123.6,62.1 123.4,61.7 123.2,61.4 122.9,60.7 122.3,59.9 122,59.2 121.8,58.9 121.4,58.3 121.1,57.8 120.4,56.4 119.9,55.8 
		119.8,55.4 119.4,54.8 119.2,54.5 119,54.3 118.6,54.2 118.3,54.4 118.3,54.8 	"/>
	<polygon class="st0" points="134.7,47.2 134.8,47.5 134.9,47.7 135.1,48 135.4,48.8 135.8,49.4 136.2,50.3 136.4,50.6 138.8,55.8 
		139,56.2 140,58.1 140.1,58.4 140.6,59.3 140.7,59.6 141.1,59.8 141.5,59.6 141.5,59.2 141.4,58.9 141,58.3 140.9,58 140.8,57.7 
		140.4,57 139.7,55.5 139.5,55.1 139.2,54.5 138.8,53.9 138.7,53.3 137.6,51.2 137.5,50.8 137.3,50.6 136,48 135.9,47.7 134.9,45.8 
		134.5,45.6 134.1,45.8 134.2,46.2 	"/>
	<polygon class="st0" points="148.6,43.1 148.9,43.9 149.2,44.6 149.3,44.9 149.4,45.2 151.2,50.1 151.4,50.4 151.7,51.1 
		151.8,51.6 152.8,54.2 153.2,54.4 153.5,54.2 153.6,53.8 153.2,52.9 153.1,52.5 152.6,51.2 152.5,50.8 152.3,50.6 152.3,50.2 
		151.8,48.9 151.6,48.5 151.1,47 151.7,46.5 152.1,46.3 152.4,46.1 152.7,45.9 153.1,46.1 154.4,47.5 154.6,47.7 154.9,48 
		155.2,48.2 155.7,48.8 156,49.1 156.4,49.6 156.7,49.8 157,50.1 157.2,50.4 157.5,50.6 158,51.2 158.7,52 159.2,52.2 159.6,52.2 
		159.8,52 159.5,51.5 158.9,50.8 158.7,50.7 158.4,50.3 158.2,50 157.6,49.6 157.2,49 156.7,48.5 156.4,48.2 154.6,46.5 154.2,45.9 
		153.9,45.7 153.7,45.4 153.5,44.9 153.6,44.6 153.7,44.2 153.8,43.9 153.9,43.5 154.2,42.5 154.2,42.2 154.2,41.8 154.3,41.5 
		154.3,41.1 154.3,40.8 154.3,40.3 154,37.9 153.7,37.6 153.2,37.8 153.1,38.2 153.2,38.6 153.3,39 153.3,39.7 153.4,40.1 
		153.5,40.5 153.4,40.8 153.5,41.2 153.4,42 153.3,42.3 153.3,42.8 153.2,43.3 153,43.7 152.9,44.1 152.7,44.4 152.5,44.7 152.3,45 
		152.1,45.2 151.8,45.5 151.2,46 150.7,46.2 150.2,44.7 150,44.3 149.2,42.2 149.1,41.9 148.9,41.6 148.8,41.2 148.6,40.9 
		148.6,40.5 148.3,40 147.9,39.7 147.5,39.9 147.5,40.3 	"/>
	<path class="st0" d="M193.6,43.8l0.4-0.4l0-0.4l0.3-2.4l0-0.4l0.1-0.3l0-0.4l0.1-0.7l0.4-0.4l0.4,0l0.3,0l0.4-0.1l0.4,0l0.3-0.1
		l0.7-0.1l0.3-0.1l0.4,0l0.4,0l0.3-0.1l0.4,0.2l0.6,1.4l0.1,0.3l0.2,0.3l0.6,1.7l0.2,0.3l0.1,0.3l0.6,0.3l0.3-0.4l-0.8-2l-0.2-0.3
		l-0.1-0.4l-0.1-0.3l-0.3-0.7l-0.2-0.3l-0.2-0.7l-0.3-0.6l-0.1-0.4l-0.3-0.6l-0.1-0.4l-0.3-0.7l-0.2-0.3l-0.3-0.7l-0.2-0.7l-0.2-0.3
		l-0.1-0.3l-0.2-0.4l-0.2-0.7l-0.3-0.6l-0.1-0.4l-0.2-0.3l-0.1-0.3l-0.8-2.1l-0.5-0.3l-0.3,0.1l-0.4,0.4l-0.3,2.2l-0.1,0.3l0,0.7
		l-0.1,0.7l-0.2,1.8l-0.1,0.4v0.4l0,0.3l-0.1,0.4l0,0.4l-0.1,0.4l0,0.3l-0.2,1.1l0,0.4l-0.1,0.8l0,0.3l-0.2,1.1l0,0.3l-0.3,2.2
		l0,0.4l0,0.3l-0.1,0.4l0.3,0.3L193.6,43.8z M195.1,34.4l0-0.4l0.2-1.4l0.1-0.3l0-0.3l0.1-0.3l0.1-1.2l0-0.4l0.1-0.4l0-0.8l0-0.4
		l1.3,3.6l0.2,0.3l0.3,1l0.2,0.3l0.1,0.3l0.1,0.3l0.2,0.3l0.1,0.4l0.2,0.3l0.1,0.4l0.2,0.3l0.2,0.7l-0.2,0.4l-0.7,0.1l-0.7,0.1
		l-0.3,0.1l-0.4,0l-0.7,0.1h-0.4l-0.3,0.1l-0.3-0.3L195.1,34.4z"/>
	<polygon class="st0" points="212.3,28.1 212.4,28.5 212.4,29.4 212.4,29.7 212.4,30.7 212.5,31.7 212.4,32 212.5,34.2 212.4,34.8 
		212.5,36.6 212.6,37.2 212.5,38.2 212.6,38.7 212.6,39.3 212.5,39.7 212.6,41.5 212.8,41.8 213.3,41.8 213.5,41.4 213.4,40.9 
		213.4,40 213.5,39.7 213.4,39.3 213.4,38.9 213.4,38.5 213.4,38.1 213.4,37.8 213.4,37.1 213.4,36.3 213.4,35.7 213.4,35.3 
		213.4,34.9 213.3,34.6 213.4,34.3 213.3,33.4 213.3,32.9 213.3,32.4 213.3,32 213.3,31.7 213.3,31.3 213.3,30.5 213.3,30.1 
		213.3,29.6 213.2,28 213.2,27.6 213.2,27.6 213.4,27.9 214.1,30 214.3,30.3 214.4,30.7 214.9,31.6 215,32 215.2,32.3 215.3,32.6 
		215.5,33.3 215.7,33.6 216,34.4 216.1,34.6 216.3,35 216.5,35.3 216.7,36 216.8,36.4 217,36.6 217.1,37 217.3,37.4 217.4,37.7 
		217.7,38.4 218,39.1 218.1,39.4 218.9,41 218.9,41.4 219.3,41.7 219.8,41.8 220.1,41.7 220.3,41.3 220.3,40.6 220.3,40.2 
		220.2,39.9 220.3,39.5 220.3,39.1 220.2,38.7 220.2,36.5 220.2,36.2 220.1,34.7 220.2,34.4 220.1,34 220.1,33.6 220.1,33.3 
		220.2,32.9 220.2,32.5 220.1,32.2 220.1,31 220.1,30.7 220.1,30.3 220.1,29.9 220.1,28.5 220,27.8 220,26.7 219.9,26.4 219.6,26.1 
		219.2,26.2 219.1,26.4 219.2,27.5 219.2,28.9 219.2,29.4 219.2,30.7 219.3,31.1 219.3,38.3 219.4,38.8 219.4,39.3 219.5,39.6 
		219.5,39.9 219.4,40.3 219.4,40.3 219.2,40 219.2,39.6 218.7,38.5 218.5,38 218.4,37.7 218.1,37 217.9,36.3 217.7,35.9 217.5,35.7 
		216.8,34 216.7,33.7 216.4,33 216.1,32.3 216,32 214.8,29.2 214.7,29 214.3,28 214.1,27.6 214,27.2 213.8,26.9 213.7,26.6 
		213.3,26.3 212.9,26.1 212.5,26.2 212.3,26.8 212.4,27.4 	"/>
	<path class="st0" d="M231.6,42.3L232,42l0.1-0.4l0.8-2.3l0.1-0.4l0.1-0.3l0.1-0.4l0.3-0.7l0.4-0.3l0.4,0.1l0.3,0l0.4,0l0.4,0.1
		l0.3,0l0.7,0.1l0.3,0l0.4,0l0.4,0.1l0.3,0l0.4,0.3l0.3,1.5l0,0.3l0.1,0.4l0.3,1.8l0.1,0.3l0,0.3l0.5,0.4l0.4-0.4l-0.3-2.2l-0.1-0.3
		l0-0.4l-0.1-0.3l-0.1-0.8l-0.1-0.3l-0.1-0.7l-0.1-0.7l0-0.4l-0.1-0.7l0-0.4l-0.1-0.7l-0.1-0.4l-0.1-0.7l0-0.7l-0.1-0.4l0-0.3
		l-0.1-0.4l-0.1-0.7l-0.2-0.7l0-0.4l-0.1-0.4l0-0.3l-0.4-2.2l-0.4-0.4l-0.3,0l-0.5,0.3l-0.7,2.1l-0.1,0.3l-0.2,0.7l-0.3,0.7
		l-0.5,1.8l-0.2,0.4l-0.1,0.4l-0.1,0.3l-0.2,0.4l-0.1,0.4l-0.2,0.3l-0.1,0.3l-0.4,1l-0.1,0.4l-0.3,0.7l-0.1,0.3l-0.4,1l-0.1,0.3
		l-0.7,2.1l-0.1,0.4l-0.1,0.3l-0.2,0.4l0.2,0.4L231.6,42.3z M234.9,33.4L235,33l0.5-1.4l0.1-0.3l0.1-0.3l0.1-0.3l0.3-1.1l0.1-0.4
		l0.2-0.3l0.2-0.8l0.1-0.4l0.5,3.8l0.1,0.4l0.1,1l0.1,0.4l0.1,0.4l0,0.3l0.1,0.4l0,0.4l0.1,0.3l0,0.4l0.1,0.3l0.1,0.7l-0.2,0.3
		l-0.8,0l-0.7-0.1l-0.3,0l-0.4-0.1l-0.7,0l-0.4-0.1l-0.3,0l-0.3-0.4L234.9,33.4z"/>
	<polygon class="st0" points="250.6,43.9 250.8,44.2 251.1,44.4 251.4,44.7 252.1,44.9 252.8,45.1 253.7,45.3 255,45.3 255.4,45.2 
		255.7,45.1 256.1,44.9 256.4,44.8 256.9,44.4 257.6,43.5 257.7,43.2 258.1,41.9 258.1,40.6 258.1,40.3 258,39.9 257.8,39.2 
		256.9,37.7 256.6,37.5 256.1,36.9 255.8,36.8 255.4,36.3 255,36 254.5,35.4 254.3,35.2 253.8,34.7 253.7,34.3 253.5,34.1 
		253.4,33.8 253.3,32.8 253.3,32.2 253.4,31.7 253.6,31.3 253.7,31 254.2,30.5 255.2,30 256,29.9 256.5,30 257,30.1 257.3,30.3 
		257.8,30.5 258.5,31 258.9,31.1 259.2,30.8 259,30.4 258.8,30.1 258.4,30 258.1,29.8 257.9,29.6 257.3,29.5 256.6,29.2 256.1,29.1 
		255.1,29.2 254.3,29.4 253.7,29.8 253.5,29.9 253,30.5 252.8,30.8 252.7,31.2 252.5,31.5 252.3,32.6 252.4,33 252.4,33.3 252.5,34 
		253.2,35.4 253.7,35.9 254,36.2 254.3,36.5 254.9,37.1 255.2,37.3 255.9,38 256.1,38.3 256.4,38.6 256.8,39.1 257.2,40.1 
		257.2,40.5 257.3,40.9 257.1,42.3 256.7,43.3 256.2,43.8 255.8,44.1 255.3,44.4 255,44.4 254.7,44.5 254.3,44.5 253.4,44.5 
		252.9,44.4 252.6,44.2 252.2,44.1 251.9,43.9 251.6,43.7 251.3,43.5 251.1,43.3 250.9,43.1 250.5,42.9 250.2,43.3 250.3,43.7 	"/>
	<polygon class="st0" points="270.7,49 271,48.8 271,48.4 271.4,47.1 271.5,46.8 271.6,46.4 272.1,44.7 272.2,44.3 272.3,44 
		272.5,43.5 272.8,42.2 273,41.8 273.1,41.1 273.2,40.9 273.9,38.4 274.1,38 274.9,35.2 275.1,34.9 275.6,34.8 276.2,35 277,35.3 
		277.7,35.5 278.1,35.4 278.2,35 277.9,34.7 277.6,34.7 277.2,34.5 276.9,34.4 276.5,34.3 276.1,34.2 275.8,34.1 275.5,34 
		275.2,33.9 274.8,33.8 274.4,33.7 274.1,33.6 273.8,33.5 273.1,33.3 272.7,33.2 272,33 271.7,32.9 271.3,33 271.2,33.3 271.4,33.7 
		273.3,34.1 273.7,34.3 274,34.5 274,35 273.9,35.3 273.8,36 273.6,36.4 273.5,36.7 273.3,37.4 273.3,37.8 273.1,38.1 272.9,38.5 
		272.5,40.2 272.4,40.6 272.2,41.3 272.1,41.7 271.9,42.3 271.8,42.7 271.7,43 271.6,43.4 271.5,43.7 271.3,44.4 271.2,44.8 
		270.6,46.9 270.4,47.3 270.2,48.3 270.1,48.6 270.3,48.9 	"/>
	<path class="st0" d="M282.6,53.1l0.5-0.2l0.2-0.4l1.5-2l0.2-0.3l0.2-0.3l0.2-0.4l0.5-0.6l0.5-0.2l0.3,0.2l0.3,0.1l0.4,0.1l0.3,0.2
		l0.3,0.1l0.7,0.3l0.3,0.1l0.4,0.1l0.3,0.2l0.3,0.1l0.3,0.4l-0.1,1.5l-0.1,0.3l0,0.4l-0.3,1.8l0,0.4l-0.1,0.3L290,56l0.5-0.2
		l0.3-2.2l0-0.3l0.1-0.4l0-0.3l0.1-0.8l0-0.3l0.1-0.7l0-0.7l0.1-0.4l0-0.7l0.1-0.4l0.1-0.7l0-0.4l0.1-0.7l0.2-0.7l0-0.4l0.1-0.3
		l0-0.4l0.1-0.7l0-0.7l0.1-0.4l0-0.4l0.1-0.3l0.3-2.2l-0.3-0.5l-0.3-0.1l-0.6,0.1l-1.3,1.8l-0.2,0.3l-0.4,0.6L289,43l-1,1.5
		l-0.3,0.3l-0.2,0.3l-0.2,0.3l-0.3,0.3l-0.2,0.3l-0.3,0.3l-0.1,0.3l-0.7,0.9l-0.2,0.3l-0.5,0.6l-0.2,0.3l-0.7,0.9l-0.2,0.3l-1.3,1.8
		l-0.2,0.3l-0.2,0.3l-0.3,0.3l0.1,0.4L282.6,53.1z M288.3,45.6l0.2-0.4l0.9-1.2l0.2-0.3l0.2-0.3l0.2-0.3l0.6-1l0.2-0.4l0.3-0.3
		l0.4-0.7l0.2-0.3l-0.6,3.8l0,0.4l-0.2,1l0,0.4l0,0.4l-0.1,0.3l0,0.4l-0.1,0.3l0,0.3l-0.1,0.4l0,0.3l-0.1,0.7l-0.3,0.2l-0.7-0.2
		l-0.7-0.3l-0.3-0.1l-0.3-0.2l-0.6-0.2l-0.3-0.2l-0.3-0.1l-0.2-0.4L288.3,45.6z"/>
	<polygon class="st0" points="300.4,60.1 300.5,60.4 300.8,60.7 301,61 301.5,61.5 302.2,61.8 303,62.3 304.3,62.6 304.6,62.7 
		305,62.7 305.4,62.6 305.7,62.6 306.4,62.3 307.2,61.7 307.4,61.4 308.1,60.3 308.6,59 308.6,58.7 308.7,58.3 308.6,57.6 
		308.2,55.9 308,55.6 307.6,54.9 307.4,54.7 307.2,54.1 306.9,53.7 306.6,53 306.4,52.8 306.1,52.1 306.1,51.8 306,51.5 305.9,51.1 
		306.1,50.1 306.3,49.6 306.6,49.1 306.8,48.8 307.1,48.6 307.6,48.2 308.7,48 309.5,48.2 310,48.4 310.5,48.6 310.7,48.9 
		311.1,49.2 311.7,49.9 312,50.1 312.4,50 312.3,49.5 312.2,49.2 311.9,48.9 311.6,48.6 311.4,48.4 310.9,48.1 310.3,47.7 
		309.8,47.4 308.8,47.2 308.1,47.2 307.4,47.4 307.1,47.5 306.5,47.9 306.2,48.1 306,48.4 305.8,48.7 305.3,49.7 305.2,50.1 
		305.1,50.4 305,51.1 305.3,52.6 305.6,53.3 305.8,53.6 306,54 306.5,54.8 306.7,55.1 307.1,55.9 307.3,56.2 307.5,56.6 307.6,57.2 
		307.8,58.3 307.7,58.7 307.6,59 307.1,60.4 306.4,61.2 305.8,61.5 305.3,61.7 304.8,61.9 304.5,61.8 304.1,61.8 303.8,61.7 
		302.9,61.4 302.4,61.2 302.2,60.9 301.9,60.7 301.7,60.4 301.4,60.2 301.2,59.9 301.1,59.6 300.9,59.4 300.6,59.1 300.2,59.4 
		300.2,59.8 	"/>
	<polygon class="st0" points="316.9,69.8 317.2,69.7 317.4,69.4 317.7,68.7 317.9,68.4 318.1,68.2 318.4,67.5 319.4,66.1 
		319.6,65.7 320,65.2 320.3,64.5 320.7,64.1 321.9,62.1 322.2,61.7 322.3,61.5 323.8,59 324,58.8 325,56.9 325,56.5 324.7,56.2 
		324.3,56.5 323.8,57.5 323.6,57.7 323.4,58 323.3,58.3 322.8,59 322.5,59.5 321.9,60.4 321.7,60.7 318.7,65.5 318.4,65.9 
		317.4,67.7 317.1,68 316.6,68.9 316.4,69.2 316.5,69.6 	"/>
	<path class="st0" d="M327,76.5l0.3-0.3l1.9-1.5l0.3-0.3l0.3-0.2l0.3-0.3l0.6-0.4l0.6-0.1l0.3,0.3l0.2,0.2l0.3,0.2l0.3,0.3l0.3,0.2
		l0.6,0.5l0.3,0.2l0.3,0.2l0.2,0.3l0.3,0.2l0.2,0.4l-0.5,1.4l-0.2,0.3l-0.1,0.4l-0.7,1.7l-0.1,0.3l-0.2,0.3l0.2,0.6l0.5-0.1l0.9-2
		l0.1-0.3l0.2-0.4l0.1-0.3l0.3-0.7l0.1-0.3l0.3-0.7l0.2-0.6l0.2-0.4l0.2-0.6l0.2-0.3l0.3-0.7l0.1-0.4l0.3-0.7l0.4-0.6l0.1-0.3
		l0.1-0.3l0.1-0.4l0.3-0.6l0.2-0.7l0.2-0.3l0.1-0.4l0.2-0.3l0.9-2l-0.2-0.6L339,66l-0.6,0l-1.7,1.4l-0.3,0.2l-0.5,0.5l-0.6,0.4
		l-1.4,1.2l-0.3,0.2l-0.3,0.3l-0.2,0.2l-0.3,0.2l-0.3,0.3l-0.3,0.2l-0.2,0.2l-0.9,0.7l-0.3,0.3l-0.6,0.5l-0.2,0.2l-0.9,0.6l-0.2,0.2
		l-1.7,1.4l-0.3,0.3l-0.3,0.2l-0.3,0.2l0,0.4l0.2,0.2L327,76.5z M334,70.8l0.3-0.3l1.1-0.9l0.3-0.2l0.2-0.2l0.3-0.2l0.9-0.8l0.3-0.3
		l0.3-0.2l0.6-0.6l0.3-0.3l-1.6,3.5l-0.1,0.4l-0.4,0.9l-0.1,0.4l-0.1,0.3l-0.2,0.3l-0.1,0.4l-0.2,0.3l-0.1,0.3l-0.2,0.4l-0.1,0.3
		L335,75l-0.4,0.1l-0.6-0.4l-0.6-0.5l-0.3-0.2l-0.3-0.3l-0.6-0.4l-0.3-0.3l-0.3-0.2l0-0.5L334,70.8z"/>
	<path class="st0" d="M158.1,106.1c-1.5-1.2-3.4-1.9-5.2-2c-1.9-0.1-3.7,0.2-5.5,0.9c-1.7,0.7-3.3,1.7-4.7,3
		c-1.3,1.3-2.5,2.9-3.3,4.7c-0.8,1.8-1.2,3.8-1.2,5.8c0,2,0.5,3.9,1,5.5c1.1,3.4,2.8,6,4,8.5c0.6,1.2,1.2,2.6,1.8,3.9
		c0.6,1.3,1.2,2.6,1.8,3.9c0.1,0.3,0.2,0.5,0.3,0.7c-1.2,1.8-2.4,3.7-3.8,5.4c-1.8,2.4-3.4,4.8-5.3,7.1c-1.8,2.3-3.7,4.6-5.7,6.7
		c-2,2.1-4,4.2-6.3,5.8c-1.2,0.8-2.3,1.5-3.5,2c-0.6,0.2-1.1,0.4-1.6,0.4c-0.4,0-0.6-0.1-0.8-0.3c-0.2-0.2-0.4-0.6-0.6-1.1
		c-0.2-0.5-0.3-1.1-0.4-1.8c-0.2-1.2-0.3-2.5-0.3-3.8c1.9-1.3,3.7-2.7,5.4-4.1c1.2-1,2.3-2.1,3.3-3.2c1-1.2,2-2.3,2.9-3.6
		c0.5-0.6,0.9-1.3,1.3-1.9c0.4-0.7,0.8-1.5,1.1-2.2c0.6-1.5,0.9-3,1.1-4.6c0.1-0.8,0.1-1.5,0.1-2.3c0-0.8-0.1-1.6-0.2-2.3
		c-0.1-0.4-0.2-0.8-0.3-1.1c-0.1-0.4-0.2-0.8-0.4-1.1c-0.3-0.7-0.8-1.5-1.5-2c-0.7-0.6-1.6-0.9-2.5-1c-0.5,0-0.9-0.1-1.4-0.1
		c-0.5,0-0.9,0-1.4,0.1c-1.9,0.2-3.7,0.7-5.4,1.4c-0.8,0.4-1.6,0.9-2.2,1.5l-0.5,0.4c-0.2,0.2-0.4,0.4-0.5,0.6l-0.5,0.6l-0.4,0.6
		c-1.1,1.7-1.8,3.3-2.4,4.9c-1.1,3.2-1.7,6.4-2,9.6c-0.1,1.6-0.2,3.3-0.2,5c0,0.4,0,0.9,0,1.4l0.1,1.2c0,0.5,0.1,1,0.1,1.5
		c-0.4,0.2-0.8,0.5-1.3,0.7c-1.2,0.7-2.6,1.3-3.9,1.9c-2.5,1.2-5,2.4-7.5,3.6c0.4-0.9,0.8-1.9,1.2-2.9c1.2-3,2.1-6.3,2.6-9.8
		c0.4-3.4,0.2-7-0.6-10.5c-0.8-3.5-2.3-6.9-4.4-9.9c-2.1-3-4.8-5.6-7.9-7.6c-1.6-1-3.2-1.9-4.9-2.5c-0.8-0.4-1.7-0.6-2.6-0.9
		c-0.9-0.3-1.8-0.5-2.6-0.6c-0.9-0.2-1.8-0.3-2.7-0.4c-0.9-0.1-1.8-0.2-2.7-0.2c-1.8,0-3.5,0.1-5.3,0.4c-0.9,0.1-1.7,0.3-2.6,0.5
		c-0.8,0.2-1.7,0.5-2.5,0.7c-0.8,0.3-1.6,0.5-2.4,0.9l-2.2,1c-1.5,0.6-3,1.3-4.4,2.1l-2.1,1.2l-1,0.6c-0.3,0.2-0.7,0.4-1,0.7
		c-5.4,3.4-10.3,7.3-15,11.5c-1.2,1-2.3,2.2-3.3,3.3l-1.6,1.7c-0.5,0.6-1,1.2-1.5,1.8c-2.1,2.3-4,4.7-5.9,7.2
		c-3.7,5-7,10.2-10.1,15.6c-1.5,2.6-2.9,5-4,7.4c-8.1,13.6-1.9,23.7-1.9,23.7l2.8-1.4c0,0,4.5-7.2,9.9-18.5c0.6-1.2,1-2.3,1.3-3.3
		c0.3-0.6,0.6-1.3,0.9-2c2.2-5.7,5-11.3,8.3-16.5c1.6-2.4,3.2-4.7,4.9-6.9c0.4-0.6,0.9-1.1,1.3-1.7l1.4-1.6c0.9-1.1,1.9-2.1,2.9-3.1
		c3.9-4,8.5-7.4,13.6-9.7c0.3-0.1,0.6-0.3,0.9-0.4l1-0.4l1.9-0.7c1.3-0.5,2.6-0.9,3.9-1.2c2.7-0.8,5.1-1.2,7.6-1.3
		c1.2-0.1,2.4-0.1,3.6,0c1.2,0,2.4,0.2,3.5,0.4c2.3,0.5,4.5,1.2,6.5,2.3c3.9,2.3,6.9,6.1,8.2,10.6c0.4,1.1,0.5,2.3,0.7,3.5
		c0.1,1.2,0.2,2.4,0.1,3.7c-0.1,2.5-0.6,5-1.3,7.6c-1.2,3.9-2.9,7.8-4.9,11.6c-4.2,1.9-8.4,3.8-12.7,5.7l-14.2,6.3
		c0.7-0.9,1.4-1.8,1.9-2.8c2.5-3.7,4.3-8,5.8-12.4c0.3-1.1,0.8-2.2,1-3.3l0.8-3.4c0.2-1.2,0.3-2.3,0.4-3.5c0.1-1.2,0.1-2.3,0.1-3.5
		c-0.1-2.3-0.4-4.7-1.1-6.9c-0.4-1.1-0.9-2.2-1.7-3.2c-0.7-1-1.6-1.9-2.9-2.7c-0.1-0.1-0.2-0.1-0.3-0.1c-1-0.4-2.1,0-2.6,1l-0.1,0.3
		c-1,2.4-1.2,4.5-1.2,6.4c0,1,0.1,1.9,0.2,2.9c0.1,1,0.2,1.9,0.3,2.9c0.3,3.9,0.8,7.8,0.4,11.8c-0.4,4-1.4,8-3,11.7
		c-0.7,1.9-1.8,3.7-2.7,5.6c-0.3,0.7-0.8,1.3-1.2,1.9l-4.4,2l-2,0.9c-0.7,0.3-1.3,0.5-2,0.8l-4.2,1.4c-0.7,0.3-1.5,0.5-2.2,0.9
		c-0.7,0.4-1.5,0.7-2.2,1.4c-0.4,0.3-0.7,0.7-1,1.2c-0.3,0.5-0.4,1-0.5,1.6c-0.1,1.1,0.3,2.1,0.7,2.8c1.6,3,4.5,5.2,7.8,6.1
		c6.4,1.4,12.9,0.3,18.6-2.1c2.9-1.2,5.6-2.7,8.2-4.5c2.6-1.7,5.1-3.6,7.4-5.6c4.7-4.1,8.8-8.7,12.5-13.7c2-2.7,3.8-5.5,5.4-8.4
		c3.9-1.7,7.8-3.5,11.7-5.2c1.2-0.5,2.5-1.1,3.7-1.7c0,0.4,0.1,0.8,0.1,1.2c0.1,0.9,0.3,2,0.7,3.1c0.4,1.1,1.1,2.6,2.6,3.9
		c0.8,0.7,1.7,1.2,2.7,1.5c1,0.3,1.9,0.4,2.7,0.3c1.6-0.1,2.8-0.5,3.8-0.9c1.9-0.8,3.4-1.9,4.8-3c2.6-2.2,4.7-4.7,6.5-7.3
		c1.8-2.6,3.4-5.3,4.9-7.9c1.5-2.7,3-5.3,4.6-7.8c0.8-1.4,1.6-2.8,2.4-4.3c0.5,1.4,0.9,2.7,1.3,4.1c0.6,2.6,1,5.2,1,7.9l-0.1,2
		l-0.2,2c-0.1,0.7-0.2,1.4-0.3,2c0,0.4-0.1,0.6-0.2,0.9c-0.1,0.3-0.1,0.6-0.2,0.9c-0.7,2.5-1.8,5.1-3.2,7.5c-1.4,2.4-3.1,4.7-5,6.5
		c-0.5,0.5-1,0.9-1.5,1.3c0-0.3,0-0.7-0.1-1c-0.4-1.1-1.6-1.6-2.7-1.2l-0.2,0.1c-0.9,0.3-1.8,0.8-2.6,1.7c-0.8,0.8-1.3,1.9-1.5,3
		c-0.1,0.9,0.3,1.8,1.1,2.2c1,0.5,2.1,0.8,3.1,0.7c1.1,0,2-0.3,2.9-0.6c1.7-0.7,3.1-1.7,4.4-2.7c2.5-2.1,4.4-4.6,6.2-7.2
		c1.7-2.6,3.2-5.4,4.2-8.4c0.3-0.8,0.5-1.6,0.6-2.4c0.1-0.8,0.3-1.5,0.4-2.3l0.3-2.3c0.1-0.8,0.1-1.6,0.2-2.4
		c0.3-6.3-1.1-12.7-3.5-18.3c-0.2-0.5-0.5-1.1-0.7-1.6l2-4.1c0.7-1.3,1.3-2.7,1.9-4c0.7-1.3,1.3-2.7,2-4c0.6-1.4,1.3-2.7,1.9-4.1
		c0.6-1.4,1-2.9,1.2-4.5c0.2-1.6,0.2-3.2-0.2-4.8C160.5,109.1,159.6,107.4,158.1,106.1z M75.1,189.9c-2,2.1-4.1,4-6.3,5.8
		c-2.2,1.7-4.6,3.3-7.1,4.5c-2.5,1.3-5.1,2.2-7.9,2.8c-1.4,0.3-2.7,0.4-4.1,0.5c-0.7,0-1.4,0.1-2.1,0c-0.7-0.1-1.4-0.1-2-0.2
		c-1.2-0.2-2.5-0.7-3.5-1.4c-0.5-0.4-1-0.8-1.4-1.3c-0.4-0.5-0.9-1-1.1-1.5c-0.3-0.5-0.5-1-0.5-1.4c0-0.4,0.2-0.7,0.5-1.1
		c0.8-0.8,2.1-1.3,3.5-1.8l4.2-1.4c0.7-0.2,1.5-0.5,2.2-0.8l2.1-0.9l0.8-0.4c0,0.2,0.1,0.5,0.3,0.7c0.4,0.4,1.1,0.4,1.5,0l2.3-2.4
		c0,0,0,0,0.1-0.1l3.2-1.4l16.4-7c2.8-1.2,5.7-2.4,8.5-3.6C81.9,182,78.7,186.2,75.1,189.9z M118.6,156.7
		C118.6,156.7,118.6,156.6,118.6,156.7c0-1.5,0-2.9,0.1-4.3c0.2-2.9,0.6-5.8,1.3-8.5c0.4-1.4,0.8-2.7,1.4-4c0.6-1.2,1.5-2.3,2.5-3.4
		c1-1.1,2-2.1,3.3-2.7c1.2-0.7,2.8-0.9,3.8-0.1c1,0.8,1.5,2.3,1.7,3.6c0.1,0.7,0.1,1.4,0.1,2.1c-0.1,0.7-0.2,1.4-0.4,2.1
		c-0.3,1.4-0.9,2.7-1.6,3.8c-0.4,0.6-0.7,1.1-1.2,1.6c-0.5,0.5-1,1.1-1.5,1.6c-2,2.1-4.2,4-6.4,5.7
		C120.8,155.1,119.7,155.9,118.6,156.7z M158.9,119.7c-0.4,1.4-1.2,2.7-1.8,4c-1.3,2.7-2.6,5.3-4.1,7.9c-0.6,1-1.1,2-1.7,2.9
		c-0.7-1.6-1.5-3.3-2.3-4.9c-1.4-2.7-2.9-5.2-3.9-7.7c-1-2.5-1.3-5-0.5-7.5c0.7-2.5,2.4-4.6,4.7-5.9c2.3-1.3,5.2-1.7,7.4-0.3
		c1.1,0.7,2,1.8,2.4,3.1c0.5,1.3,0.6,2.7,0.6,4.1C159.6,116.9,159.3,118.3,158.9,119.7z"/>
</g>
</svg>
